<mxfile host="app.diagrams.net" agent="Mozilla/5.0 (Windows NT 10.0; Win64; x64) AppleWebKit/537.36 (KHTML, like Gecko) Chrome/126.0.0.0 Safari/537.36" version="24.7.4" pages="8">
  <diagram name="Kloola Add Shop" id="byepr3kvgMJuyPuLvm8c">
    <mxGraphModel dx="1050" dy="565" grid="1" gridSize="10" guides="1" tooltips="1" connect="1" arrows="1" fold="1" page="1" pageScale="1" pageWidth="850" pageHeight="1100" math="0" shadow="0">
      <root>
        <mxCell id="0" />
        <mxCell id="1" parent="0" />
        <mxCell id="AQCrh7SWQ5E4m9wCt-43-2" value="Kloola Omnichannel add shop" style="shape=umlFrame;whiteSpace=wrap;html=1;pointerEvents=0;width=180;height=20;" parent="1" vertex="1">
          <mxGeometry x="240" y="240" width="390" height="400" as="geometry" />
        </mxCell>
        <mxCell id="AQCrh7SWQ5E4m9wCt-43-14" style="rounded=0;orthogonalLoop=1;jettySize=auto;html=1;exitX=0.5;exitY=0.5;exitDx=0;exitDy=0;exitPerimeter=0;entryX=0;entryY=0.5;entryDx=0;entryDy=0;" parent="1" source="AQCrh7SWQ5E4m9wCt-43-3" target="AQCrh7SWQ5E4m9wCt-43-6" edge="1">
          <mxGeometry relative="1" as="geometry">
            <mxPoint x="250" y="555" as="targetPoint" />
          </mxGeometry>
        </mxCell>
        <mxCell id="AQCrh7SWQ5E4m9wCt-43-3" value="Seller" style="shape=umlActor;verticalLabelPosition=bottom;verticalAlign=top;html=1;" parent="1" vertex="1">
          <mxGeometry x="150" y="420" width="30" height="60" as="geometry" />
        </mxCell>
        <mxCell id="AQCrh7SWQ5E4m9wCt-43-4" value="Kloola Authentication" style="ellipse;whiteSpace=wrap;html=1;" parent="1" vertex="1">
          <mxGeometry x="270" y="340" width="140" height="70" as="geometry" />
        </mxCell>
        <mxCell id="AQCrh7SWQ5E4m9wCt-43-6" value="add shop" style="ellipse;whiteSpace=wrap;html=1;" parent="1" vertex="1">
          <mxGeometry x="340" y="470" width="140" height="70" as="geometry" />
        </mxCell>
        <mxCell id="AQCrh7SWQ5E4m9wCt-43-8" value="Shop Authentication" style="ellipse;whiteSpace=wrap;html=1;" parent="1" vertex="1">
          <mxGeometry x="450" y="340" width="140" height="70" as="geometry" />
        </mxCell>
        <mxCell id="AQCrh7SWQ5E4m9wCt-43-10" style="rounded=0;orthogonalLoop=1;jettySize=auto;html=1;exitX=0.5;exitY=0.5;exitDx=0;exitDy=0;exitPerimeter=0;" parent="1" source="AQCrh7SWQ5E4m9wCt-43-9" target="AQCrh7SWQ5E4m9wCt-43-6" edge="1">
          <mxGeometry relative="1" as="geometry" />
        </mxCell>
        <mxCell id="AQCrh7SWQ5E4m9wCt-43-9" value="3rd party channel" style="shape=umlActor;verticalLabelPosition=bottom;verticalAlign=top;html=1;" parent="1" vertex="1">
          <mxGeometry x="680" y="400" width="30" height="60" as="geometry" />
        </mxCell>
        <mxCell id="AQCrh7SWQ5E4m9wCt-43-17" value="&amp;lt;&amp;lt;include&amp;gt;&amp;gt;" style="endArrow=open;endSize=12;dashed=1;html=1;rounded=0;entryX=0.76;entryY=0.986;entryDx=0;entryDy=0;entryPerimeter=0;" parent="1" source="AQCrh7SWQ5E4m9wCt-43-6" target="AQCrh7SWQ5E4m9wCt-43-4" edge="1">
          <mxGeometry width="160" relative="1" as="geometry">
            <mxPoint x="460" y="480" as="sourcePoint" />
            <mxPoint x="620" y="480" as="targetPoint" />
          </mxGeometry>
        </mxCell>
        <mxCell id="AQCrh7SWQ5E4m9wCt-43-18" value="&amp;lt;&amp;lt;include&amp;gt;&amp;gt;" style="endArrow=open;endSize=12;dashed=1;html=1;rounded=0;exitX=0.734;exitY=0.051;exitDx=0;exitDy=0;exitPerimeter=0;" parent="1" source="AQCrh7SWQ5E4m9wCt-43-6" target="AQCrh7SWQ5E4m9wCt-43-8" edge="1">
          <mxGeometry width="160" relative="1" as="geometry">
            <mxPoint x="413" y="471" as="sourcePoint" />
            <mxPoint x="386" y="419" as="targetPoint" />
          </mxGeometry>
        </mxCell>
      </root>
    </mxGraphModel>
  </diagram>
  <diagram id="CBAYZPARhE9BGEg-mSkE" name="kloola sync product">
    <mxGraphModel dx="1050" dy="565" grid="1" gridSize="10" guides="1" tooltips="1" connect="1" arrows="1" fold="1" page="1" pageScale="1" pageWidth="850" pageHeight="1100" math="0" shadow="0">
      <root>
        <mxCell id="0" />
        <mxCell id="1" parent="0" />
        <mxCell id="bDpEtsdSYiAzs2GqjxKr-1" value="Kloola Omnichannel sync product" style="shape=umlFrame;whiteSpace=wrap;html=1;pointerEvents=0;width=250;height=15;" parent="1" vertex="1">
          <mxGeometry x="220" y="170" width="470" height="470" as="geometry" />
        </mxCell>
        <mxCell id="GR2VOSQRpjOU30lwT-A5-5" style="rounded=0;orthogonalLoop=1;jettySize=auto;html=1;exitX=0.5;exitY=0.5;exitDx=0;exitDy=0;exitPerimeter=0;entryX=0;entryY=0.5;entryDx=0;entryDy=0;" parent="1" source="bDpEtsdSYiAzs2GqjxKr-2" target="GR2VOSQRpjOU30lwT-A5-2" edge="1">
          <mxGeometry relative="1" as="geometry" />
        </mxCell>
        <mxCell id="GR2VOSQRpjOU30lwT-A5-6" style="rounded=0;orthogonalLoop=1;jettySize=auto;html=1;exitX=0.5;exitY=0.5;exitDx=0;exitDy=0;exitPerimeter=0;" parent="1" source="bDpEtsdSYiAzs2GqjxKr-2" target="GR2VOSQRpjOU30lwT-A5-3" edge="1">
          <mxGeometry relative="1" as="geometry" />
        </mxCell>
        <mxCell id="bDpEtsdSYiAzs2GqjxKr-2" value="Seller" style="shape=umlActor;verticalLabelPosition=bottom;verticalAlign=top;html=1;" parent="1" vertex="1">
          <mxGeometry x="90" y="340" width="30" height="60" as="geometry" />
        </mxCell>
        <mxCell id="X2e4OAnum_Rm4cxk8-aP-1" style="rounded=0;orthogonalLoop=1;jettySize=auto;html=1;exitX=0.5;exitY=0.5;exitDx=0;exitDy=0;exitPerimeter=0;entryX=1;entryY=0.5;entryDx=0;entryDy=0;" parent="1" source="GR2VOSQRpjOU30lwT-A5-1" target="GR2VOSQRpjOU30lwT-A5-2" edge="1">
          <mxGeometry relative="1" as="geometry" />
        </mxCell>
        <mxCell id="X2e4OAnum_Rm4cxk8-aP-2" style="rounded=0;orthogonalLoop=1;jettySize=auto;html=1;exitX=0.5;exitY=0.5;exitDx=0;exitDy=0;exitPerimeter=0;" parent="1" source="GR2VOSQRpjOU30lwT-A5-1" target="GR2VOSQRpjOU30lwT-A5-3" edge="1">
          <mxGeometry relative="1" as="geometry" />
        </mxCell>
        <mxCell id="GR2VOSQRpjOU30lwT-A5-1" value="3rd party channel" style="shape=umlActor;verticalLabelPosition=bottom;verticalAlign=top;html=1;" parent="1" vertex="1">
          <mxGeometry x="750" y="360" width="30" height="60" as="geometry" />
        </mxCell>
        <mxCell id="GR2VOSQRpjOU30lwT-A5-2" value="import product shop" style="ellipse;whiteSpace=wrap;html=1;" parent="1" vertex="1">
          <mxGeometry x="270" y="270" width="140" height="70" as="geometry" />
        </mxCell>
        <mxCell id="GR2VOSQRpjOU30lwT-A5-3" value="export product shop" style="ellipse;whiteSpace=wrap;html=1;" parent="1" vertex="1">
          <mxGeometry x="320" y="410" width="140" height="70" as="geometry" />
        </mxCell>
        <mxCell id="GR2VOSQRpjOU30lwT-A5-4" value="update product shop" style="ellipse;whiteSpace=wrap;html=1;" parent="1" vertex="1">
          <mxGeometry x="420" y="515" width="140" height="70" as="geometry" />
        </mxCell>
        <mxCell id="GR2VOSQRpjOU30lwT-A5-7" style="rounded=0;orthogonalLoop=1;jettySize=auto;html=1;exitX=0.5;exitY=0.5;exitDx=0;exitDy=0;exitPerimeter=0;entryX=0.034;entryY=0.324;entryDx=0;entryDy=0;entryPerimeter=0;" parent="1" source="bDpEtsdSYiAzs2GqjxKr-2" target="GR2VOSQRpjOU30lwT-A5-4" edge="1">
          <mxGeometry relative="1" as="geometry" />
        </mxCell>
        <mxCell id="qPO38en81JQb5aIzt3Rj-1" value="Authentication" style="ellipse;whiteSpace=wrap;html=1;" parent="1" vertex="1">
          <mxGeometry x="510" y="220" width="140" height="70" as="geometry" />
        </mxCell>
        <mxCell id="xdAVd5AXGlWXveR2Jygw-1" value="&amp;lt;&amp;lt;include&amp;gt;&amp;gt;" style="endArrow=open;endSize=12;dashed=1;html=1;rounded=0;entryX=0;entryY=0.5;entryDx=0;entryDy=0;exitX=1;exitY=0;exitDx=0;exitDy=0;" parent="1" source="GR2VOSQRpjOU30lwT-A5-2" target="qPO38en81JQb5aIzt3Rj-1" edge="1">
          <mxGeometry width="160" relative="1" as="geometry">
            <mxPoint x="398" y="471" as="sourcePoint" />
            <mxPoint x="376" y="409" as="targetPoint" />
          </mxGeometry>
        </mxCell>
        <mxCell id="xdAVd5AXGlWXveR2Jygw-2" value="&amp;lt;&amp;lt;include&amp;gt;&amp;gt;" style="endArrow=open;endSize=12;dashed=1;html=1;rounded=0;entryX=0.283;entryY=0.93;entryDx=0;entryDy=0;exitX=0.799;exitY=0.124;exitDx=0;exitDy=0;exitPerimeter=0;entryPerimeter=0;" parent="1" source="GR2VOSQRpjOU30lwT-A5-3" target="qPO38en81JQb5aIzt3Rj-1" edge="1">
          <mxGeometry width="160" relative="1" as="geometry">
            <mxPoint x="364" y="338" as="sourcePoint" />
            <mxPoint x="410" y="290" as="targetPoint" />
          </mxGeometry>
        </mxCell>
        <mxCell id="xdAVd5AXGlWXveR2Jygw-3" value="&amp;lt;&amp;lt;include&amp;gt;&amp;gt;" style="endArrow=open;endSize=12;dashed=1;html=1;rounded=0;entryX=0.5;entryY=1;entryDx=0;entryDy=0;exitX=0.5;exitY=0;exitDx=0;exitDy=0;" parent="1" source="GR2VOSQRpjOU30lwT-A5-4" target="qPO38en81JQb5aIzt3Rj-1" edge="1">
          <mxGeometry width="160" relative="1" as="geometry">
            <mxPoint x="439.99999999999994" y="530.9800000000002" as="sourcePoint" />
            <mxPoint x="592.0518579666117" y="259.9999618565867" as="targetPoint" />
          </mxGeometry>
        </mxCell>
        <mxCell id="X2e4OAnum_Rm4cxk8-aP-3" style="rounded=0;orthogonalLoop=1;jettySize=auto;html=1;exitX=0.5;exitY=0.5;exitDx=0;exitDy=0;exitPerimeter=0;entryX=0.931;entryY=0.276;entryDx=0;entryDy=0;entryPerimeter=0;" parent="1" source="GR2VOSQRpjOU30lwT-A5-1" target="GR2VOSQRpjOU30lwT-A5-4" edge="1">
          <mxGeometry relative="1" as="geometry" />
        </mxCell>
      </root>
    </mxGraphModel>
  </diagram>
  <diagram id="6-6e3SIynYQ3-7TJk5l4" name="Kloola Sync stcok">
    <mxGraphModel dx="1050" dy="565" grid="1" gridSize="10" guides="1" tooltips="1" connect="1" arrows="1" fold="1" page="1" pageScale="1" pageWidth="850" pageHeight="1100" math="0" shadow="0">
      <root>
        <mxCell id="0" />
        <mxCell id="1" parent="0" />
        <mxCell id="UDzFHcjGghy5UmX6HVCR-1" value="Kloola Omnichannel sync stock" style="shape=umlFrame;whiteSpace=wrap;html=1;pointerEvents=0;width=250;height=15;" parent="1" vertex="1">
          <mxGeometry x="220" y="170" width="470" height="470" as="geometry" />
        </mxCell>
        <mxCell id="q_jF-QPKzoN8PvuTBGmC-1" value="Authentication" style="ellipse;whiteSpace=wrap;html=1;" parent="1" vertex="1">
          <mxGeometry x="310" y="380" width="140" height="70" as="geometry" />
        </mxCell>
        <mxCell id="QaaBwlWgxuFUTeoChua--5" style="rounded=0;orthogonalLoop=1;jettySize=auto;html=1;exitX=0.5;exitY=0.5;exitDx=0;exitDy=0;exitPerimeter=0;" parent="1" source="zEAAj6V_D9Ikz06alO6G-1" target="QaaBwlWgxuFUTeoChua--3" edge="1">
          <mxGeometry relative="1" as="geometry" />
        </mxCell>
        <mxCell id="QaaBwlWgxuFUTeoChua--6" style="rounded=0;orthogonalLoop=1;jettySize=auto;html=1;exitX=0.5;exitY=0.5;exitDx=0;exitDy=0;exitPerimeter=0;entryX=0;entryY=0.5;entryDx=0;entryDy=0;" parent="1" source="zEAAj6V_D9Ikz06alO6G-1" target="QaaBwlWgxuFUTeoChua--4" edge="1">
          <mxGeometry relative="1" as="geometry" />
        </mxCell>
        <mxCell id="zEAAj6V_D9Ikz06alO6G-1" value="Seller" style="shape=umlActor;verticalLabelPosition=bottom;verticalAlign=top;html=1;" parent="1" vertex="1">
          <mxGeometry x="110" y="370" width="30" height="60" as="geometry" />
        </mxCell>
        <mxCell id="QaaBwlWgxuFUTeoChua--7" style="rounded=0;orthogonalLoop=1;jettySize=auto;html=1;exitX=0.5;exitY=0.5;exitDx=0;exitDy=0;exitPerimeter=0;entryX=1;entryY=0.5;entryDx=0;entryDy=0;" parent="1" source="QaaBwlWgxuFUTeoChua--1" target="QaaBwlWgxuFUTeoChua--3" edge="1">
          <mxGeometry relative="1" as="geometry" />
        </mxCell>
        <mxCell id="QaaBwlWgxuFUTeoChua--8" style="rounded=0;orthogonalLoop=1;jettySize=auto;html=1;exitX=0.5;exitY=0.5;exitDx=0;exitDy=0;exitPerimeter=0;entryX=1;entryY=0.5;entryDx=0;entryDy=0;" parent="1" source="QaaBwlWgxuFUTeoChua--1" target="QaaBwlWgxuFUTeoChua--4" edge="1">
          <mxGeometry relative="1" as="geometry" />
        </mxCell>
        <mxCell id="QaaBwlWgxuFUTeoChua--1" value="3rd party channel" style="shape=umlActor;verticalLabelPosition=bottom;verticalAlign=top;html=1;" parent="1" vertex="1">
          <mxGeometry x="750" y="360" width="30" height="60" as="geometry" />
        </mxCell>
        <mxCell id="QaaBwlWgxuFUTeoChua--3" value="Update Stock" style="ellipse;whiteSpace=wrap;html=1;" parent="1" vertex="1">
          <mxGeometry x="380" y="280" width="140" height="70" as="geometry" />
        </mxCell>
        <mxCell id="QaaBwlWgxuFUTeoChua--4" value="Sync Stock All" style="ellipse;whiteSpace=wrap;html=1;" parent="1" vertex="1">
          <mxGeometry x="390" y="490" width="140" height="70" as="geometry" />
        </mxCell>
        <mxCell id="lGwr8uo6PuZ9pZQyd2a_-1" value="&amp;lt;&amp;lt;include&amp;gt;&amp;gt;" style="endArrow=open;endSize=12;dashed=1;html=1;rounded=0;exitX=0.391;exitY=1.02;exitDx=0;exitDy=0;exitPerimeter=0;" parent="1" source="QaaBwlWgxuFUTeoChua--3" target="q_jF-QPKzoN8PvuTBGmC-1" edge="1">
          <mxGeometry width="160" relative="1" as="geometry">
            <mxPoint x="390" y="280" as="sourcePoint" />
            <mxPoint x="510" y="255" as="targetPoint" />
          </mxGeometry>
        </mxCell>
        <mxCell id="lGwr8uo6PuZ9pZQyd2a_-2" value="&amp;lt;&amp;lt;include&amp;gt;&amp;gt;" style="endArrow=open;endSize=12;dashed=1;html=1;rounded=0;entryX=0.5;entryY=1;entryDx=0;entryDy=0;exitX=0.5;exitY=0;exitDx=0;exitDy=0;" parent="1" source="QaaBwlWgxuFUTeoChua--4" target="q_jF-QPKzoN8PvuTBGmC-1" edge="1">
          <mxGeometry width="160" relative="1" as="geometry">
            <mxPoint x="400" y="290" as="sourcePoint" />
            <mxPoint x="520" y="265" as="targetPoint" />
          </mxGeometry>
        </mxCell>
      </root>
    </mxGraphModel>
  </diagram>
  <diagram id="6sk_moZJ9Mj1wwYM3H5v" name="kloola sync order">
    <mxGraphModel dx="1050" dy="565" grid="1" gridSize="10" guides="1" tooltips="1" connect="1" arrows="1" fold="1" page="1" pageScale="1" pageWidth="850" pageHeight="1100" math="0" shadow="0">
      <root>
        <mxCell id="0" />
        <mxCell id="1" parent="0" />
        <mxCell id="BPdBd8bDbzArXA4n5LBd-1" value="Kloola Omnichannel sync order" style="shape=umlFrame;whiteSpace=wrap;html=1;pointerEvents=0;width=250;height=15;" parent="1" vertex="1">
          <mxGeometry x="220" y="170" width="470" height="470" as="geometry" />
        </mxCell>
        <mxCell id="4k279lGy71FWyRkMvZF3-2" style="rounded=0;orthogonalLoop=1;jettySize=auto;html=1;exitX=0.5;exitY=0.5;exitDx=0;exitDy=0;exitPerimeter=0;" parent="1" source="LKVMszhSLdjTgORcbYso-1" target="zM5xRW0B_59JeiEn-oWh-2" edge="1">
          <mxGeometry relative="1" as="geometry" />
        </mxCell>
        <mxCell id="LKVMszhSLdjTgORcbYso-1" value="Seller" style="shape=umlActor;verticalLabelPosition=bottom;verticalAlign=top;html=1;" parent="1" vertex="1">
          <mxGeometry x="140" y="360" width="30" height="60" as="geometry" />
        </mxCell>
        <mxCell id="4k279lGy71FWyRkMvZF3-4" style="rounded=0;orthogonalLoop=1;jettySize=auto;html=1;exitX=0.5;exitY=0.5;exitDx=0;exitDy=0;exitPerimeter=0;" parent="1" source="9NHX-VlMfsyFfl_oOVn8-1" target="zM5xRW0B_59JeiEn-oWh-2" edge="1">
          <mxGeometry relative="1" as="geometry" />
        </mxCell>
        <mxCell id="9NHX-VlMfsyFfl_oOVn8-1" value="3rd party channel" style="shape=umlActor;verticalLabelPosition=bottom;verticalAlign=top;html=1;" parent="1" vertex="1">
          <mxGeometry x="760" y="410" width="30" height="60" as="geometry" />
        </mxCell>
        <mxCell id="zM5xRW0B_59JeiEn-oWh-1" value="Authentication" style="ellipse;whiteSpace=wrap;html=1;" parent="1" vertex="1">
          <mxGeometry x="370" y="450" width="140" height="70" as="geometry" />
        </mxCell>
        <mxCell id="zM5xRW0B_59JeiEn-oWh-2" value="Sync Order" style="ellipse;whiteSpace=wrap;html=1;" parent="1" vertex="1">
          <mxGeometry x="370" y="330" width="140" height="70" as="geometry" />
        </mxCell>
        <mxCell id="zM5xRW0B_59JeiEn-oWh-3" value="Cron Job" style="shape=umlActor;verticalLabelPosition=bottom;verticalAlign=top;html=1;" parent="1" vertex="1">
          <mxGeometry x="750" y="250" width="30" height="60" as="geometry" />
        </mxCell>
        <mxCell id="4k279lGy71FWyRkMvZF3-1" value="&amp;lt;&amp;lt;include&amp;gt;&amp;gt;" style="endArrow=open;endSize=12;dashed=1;html=1;rounded=0;entryX=0.5;entryY=0;entryDx=0;entryDy=0;exitX=0.5;exitY=1;exitDx=0;exitDy=0;" parent="1" source="zM5xRW0B_59JeiEn-oWh-2" target="zM5xRW0B_59JeiEn-oWh-1" edge="1">
          <mxGeometry width="160" relative="1" as="geometry">
            <mxPoint x="460" y="490" as="sourcePoint" />
            <mxPoint x="380" y="450" as="targetPoint" />
          </mxGeometry>
        </mxCell>
        <mxCell id="4k279lGy71FWyRkMvZF3-3" style="rounded=0;orthogonalLoop=1;jettySize=auto;html=1;exitX=0.5;exitY=0.5;exitDx=0;exitDy=0;exitPerimeter=0;entryX=0.931;entryY=0.226;entryDx=0;entryDy=0;entryPerimeter=0;" parent="1" source="zM5xRW0B_59JeiEn-oWh-3" target="zM5xRW0B_59JeiEn-oWh-2" edge="1">
          <mxGeometry relative="1" as="geometry" />
        </mxCell>
      </root>
    </mxGraphModel>
  </diagram>
  <diagram id="r7mIQC3NdQEv6MOdyzI3" name="Kloola Management Product">
    <mxGraphModel dx="1050" dy="565" grid="1" gridSize="10" guides="1" tooltips="1" connect="1" arrows="1" fold="1" page="1" pageScale="1" pageWidth="850" pageHeight="1100" math="0" shadow="0">
      <root>
        <mxCell id="0" />
        <mxCell id="1" parent="0" />
        <mxCell id="-9OMlBciBF3u9qobZg56-1" value="Kloola Management Product" style="shape=umlFrame;whiteSpace=wrap;html=1;pointerEvents=0;width=250;height=15;" parent="1" vertex="1">
          <mxGeometry x="220" y="170" width="470" height="470" as="geometry" />
        </mxCell>
        <mxCell id="KTG-u2AG7Z97rs4Raa7u-2" style="rounded=0;orthogonalLoop=1;jettySize=auto;html=1;exitX=0.5;exitY=0.5;exitDx=0;exitDy=0;exitPerimeter=0;" parent="1" source="SU18WQZLdZdrjjjUW_xZ-1" target="NKWPx_E0eLpO-65_0JIS-1" edge="1">
          <mxGeometry relative="1" as="geometry" />
        </mxCell>
        <mxCell id="KTG-u2AG7Z97rs4Raa7u-3" style="rounded=0;orthogonalLoop=1;jettySize=auto;html=1;exitX=0.5;exitY=0.5;exitDx=0;exitDy=0;exitPerimeter=0;" parent="1" source="SU18WQZLdZdrjjjUW_xZ-1" target="NKWPx_E0eLpO-65_0JIS-2" edge="1">
          <mxGeometry relative="1" as="geometry" />
        </mxCell>
        <mxCell id="KTG-u2AG7Z97rs4Raa7u-4" style="rounded=0;orthogonalLoop=1;jettySize=auto;html=1;exitX=0.5;exitY=0.5;exitDx=0;exitDy=0;exitPerimeter=0;" parent="1" source="SU18WQZLdZdrjjjUW_xZ-1" target="NKWPx_E0eLpO-65_0JIS-3" edge="1">
          <mxGeometry relative="1" as="geometry" />
        </mxCell>
        <mxCell id="KTG-u2AG7Z97rs4Raa7u-5" style="rounded=0;orthogonalLoop=1;jettySize=auto;html=1;exitX=0.5;exitY=0.5;exitDx=0;exitDy=0;exitPerimeter=0;entryX=0;entryY=0;entryDx=0;entryDy=0;" parent="1" source="SU18WQZLdZdrjjjUW_xZ-1" target="NKWPx_E0eLpO-65_0JIS-4" edge="1">
          <mxGeometry relative="1" as="geometry" />
        </mxCell>
        <mxCell id="SU18WQZLdZdrjjjUW_xZ-1" value="Seller" style="shape=umlActor;verticalLabelPosition=bottom;verticalAlign=top;html=1;" parent="1" vertex="1">
          <mxGeometry x="140" y="360" width="30" height="60" as="geometry" />
        </mxCell>
        <mxCell id="NKWPx_E0eLpO-65_0JIS-1" value="View product List" style="ellipse;whiteSpace=wrap;html=1;" parent="1" vertex="1">
          <mxGeometry x="330" y="210" width="140" height="70" as="geometry" />
        </mxCell>
        <mxCell id="NKWPx_E0eLpO-65_0JIS-2" value="Create product" style="ellipse;whiteSpace=wrap;html=1;" parent="1" vertex="1">
          <mxGeometry x="330" y="310" width="140" height="70" as="geometry" />
        </mxCell>
        <mxCell id="NKWPx_E0eLpO-65_0JIS-3" value="Update product" style="ellipse;whiteSpace=wrap;html=1;" parent="1" vertex="1">
          <mxGeometry x="330" y="410" width="140" height="70" as="geometry" />
        </mxCell>
        <mxCell id="NKWPx_E0eLpO-65_0JIS-4" value="Import product" style="ellipse;whiteSpace=wrap;html=1;" parent="1" vertex="1">
          <mxGeometry x="330" y="530" width="140" height="70" as="geometry" />
        </mxCell>
        <mxCell id="KTG-u2AG7Z97rs4Raa7u-1" value="Authentication" style="ellipse;whiteSpace=wrap;html=1;" parent="1" vertex="1">
          <mxGeometry x="540" y="360" width="140" height="70" as="geometry" />
        </mxCell>
        <mxCell id="MH67HxG9Fb9OfLS9nRXq-1" value="&amp;lt;&amp;lt;include&amp;gt;&amp;gt;" style="endArrow=open;endSize=12;dashed=1;html=1;rounded=0;entryX=0;entryY=0.5;entryDx=0;entryDy=0;exitX=1.029;exitY=0.363;exitDx=0;exitDy=0;exitPerimeter=0;" parent="1" source="NKWPx_E0eLpO-65_0JIS-3" target="KTG-u2AG7Z97rs4Raa7u-1" edge="1">
          <mxGeometry width="160" relative="1" as="geometry">
            <mxPoint x="440" y="400" as="sourcePoint" />
            <mxPoint x="440" y="450" as="targetPoint" />
          </mxGeometry>
        </mxCell>
        <mxCell id="MH67HxG9Fb9OfLS9nRXq-2" value="&amp;lt;&amp;lt;include&amp;gt;&amp;gt;" style="endArrow=open;endSize=12;dashed=1;html=1;rounded=0;entryX=0;entryY=1;entryDx=0;entryDy=0;exitX=1;exitY=0;exitDx=0;exitDy=0;" parent="1" source="NKWPx_E0eLpO-65_0JIS-4" target="KTG-u2AG7Z97rs4Raa7u-1" edge="1">
          <mxGeometry width="160" relative="1" as="geometry">
            <mxPoint x="484" y="445" as="sourcePoint" />
            <mxPoint x="550" y="405" as="targetPoint" />
          </mxGeometry>
        </mxCell>
        <mxCell id="MH67HxG9Fb9OfLS9nRXq-3" value="&amp;lt;&amp;lt;include&amp;gt;&amp;gt;" style="endArrow=open;endSize=12;dashed=1;html=1;rounded=0;entryX=0;entryY=0;entryDx=0;entryDy=0;exitX=1;exitY=0.5;exitDx=0;exitDy=0;" parent="1" source="NKWPx_E0eLpO-65_0JIS-2" target="KTG-u2AG7Z97rs4Raa7u-1" edge="1">
          <mxGeometry width="160" relative="1" as="geometry">
            <mxPoint x="459" y="550" as="sourcePoint" />
            <mxPoint x="571" y="430" as="targetPoint" />
          </mxGeometry>
        </mxCell>
        <mxCell id="MH67HxG9Fb9OfLS9nRXq-4" value="&amp;lt;&amp;lt;include&amp;gt;&amp;gt;" style="endArrow=open;endSize=12;dashed=1;html=1;rounded=0;entryX=0.34;entryY=0.06;entryDx=0;entryDy=0;exitX=0.983;exitY=0.637;exitDx=0;exitDy=0;exitPerimeter=0;entryPerimeter=0;" parent="1" source="NKWPx_E0eLpO-65_0JIS-1" target="KTG-u2AG7Z97rs4Raa7u-1" edge="1">
          <mxGeometry width="160" relative="1" as="geometry">
            <mxPoint x="480" y="355" as="sourcePoint" />
            <mxPoint x="571" y="380" as="targetPoint" />
          </mxGeometry>
        </mxCell>
      </root>
    </mxGraphModel>
  </diagram>
  <diagram id="Y_ruPHnqv81MoiPc_FbZ" name="Kloola Management Stock">
    <mxGraphModel dx="1050" dy="565" grid="1" gridSize="10" guides="1" tooltips="1" connect="1" arrows="1" fold="1" page="1" pageScale="1" pageWidth="850" pageHeight="1100" math="0" shadow="0">
      <root>
        <mxCell id="0" />
        <mxCell id="1" parent="0" />
        <mxCell id="o3fwpAuU82iJJFTQE9IP-1" value="Kloola Management Stock" style="shape=umlFrame;whiteSpace=wrap;html=1;pointerEvents=0;width=250;height=15;" parent="1" vertex="1">
          <mxGeometry x="220" y="170" width="470" height="470" as="geometry" />
        </mxCell>
        <mxCell id="mcvAm5kL8X6so__n40Fy-4" style="rounded=0;orthogonalLoop=1;jettySize=auto;html=1;exitX=0.5;exitY=0.5;exitDx=0;exitDy=0;exitPerimeter=0;entryX=0;entryY=0.5;entryDx=0;entryDy=0;" parent="1" source="-3doTMtElRYyprj0OEX9-1" target="mcvAm5kL8X6so__n40Fy-1" edge="1">
          <mxGeometry relative="1" as="geometry" />
        </mxCell>
        <mxCell id="mcvAm5kL8X6so__n40Fy-6" style="rounded=0;orthogonalLoop=1;jettySize=auto;html=1;exitX=0.5;exitY=0.5;exitDx=0;exitDy=0;exitPerimeter=0;" parent="1" source="-3doTMtElRYyprj0OEX9-1" target="mcvAm5kL8X6so__n40Fy-3" edge="1">
          <mxGeometry relative="1" as="geometry" />
        </mxCell>
        <mxCell id="-3doTMtElRYyprj0OEX9-1" value="Seller" style="shape=umlActor;verticalLabelPosition=bottom;verticalAlign=top;html=1;" parent="1" vertex="1">
          <mxGeometry x="140" y="360" width="30" height="60" as="geometry" />
        </mxCell>
        <mxCell id="VeX4TsKtwX9wiIYAwhO9-1" value="Authentication" style="ellipse;whiteSpace=wrap;html=1;" parent="1" vertex="1">
          <mxGeometry x="540" y="360" width="140" height="70" as="geometry" />
        </mxCell>
        <mxCell id="mcvAm5kL8X6so__n40Fy-1" value="View stock List" style="ellipse;whiteSpace=wrap;html=1;" parent="1" vertex="1">
          <mxGeometry x="330" y="230" width="140" height="70" as="geometry" />
        </mxCell>
        <mxCell id="mcvAm5kL8X6so__n40Fy-2" value="Update Stock" style="ellipse;whiteSpace=wrap;html=1;" parent="1" vertex="1">
          <mxGeometry x="320" y="360" width="140" height="70" as="geometry" />
        </mxCell>
        <mxCell id="mcvAm5kL8X6so__n40Fy-3" value="Import Stock" style="ellipse;whiteSpace=wrap;html=1;" parent="1" vertex="1">
          <mxGeometry x="330" y="490" width="140" height="70" as="geometry" />
        </mxCell>
        <mxCell id="mcvAm5kL8X6so__n40Fy-5" style="rounded=0;orthogonalLoop=1;jettySize=auto;html=1;exitX=0.5;exitY=0.5;exitDx=0;exitDy=0;exitPerimeter=0;entryX=0.026;entryY=0.609;entryDx=0;entryDy=0;entryPerimeter=0;" parent="1" source="-3doTMtElRYyprj0OEX9-1" target="mcvAm5kL8X6so__n40Fy-2" edge="1">
          <mxGeometry relative="1" as="geometry" />
        </mxCell>
        <mxCell id="4pPsAx6psshG3Giz3JZS-1" value="&amp;lt;&amp;lt;include&amp;gt;&amp;gt;" style="endArrow=open;endSize=12;dashed=1;html=1;rounded=0;entryX=0.203;entryY=0.037;entryDx=0;entryDy=0;exitX=1;exitY=0.5;exitDx=0;exitDy=0;entryPerimeter=0;" parent="1" source="mcvAm5kL8X6so__n40Fy-1" target="VeX4TsKtwX9wiIYAwhO9-1" edge="1">
          <mxGeometry width="160" relative="1" as="geometry">
            <mxPoint x="468" y="255" as="sourcePoint" />
            <mxPoint x="588" y="364" as="targetPoint" />
          </mxGeometry>
        </mxCell>
        <mxCell id="4pPsAx6psshG3Giz3JZS-2" value="&amp;lt;&amp;lt;include&amp;gt;&amp;gt;" style="endArrow=open;endSize=12;dashed=1;html=1;rounded=0;entryX=0;entryY=0.5;entryDx=0;entryDy=0;" parent="1" source="mcvAm5kL8X6so__n40Fy-2" target="VeX4TsKtwX9wiIYAwhO9-1" edge="1">
          <mxGeometry width="160" relative="1" as="geometry">
            <mxPoint x="480" y="275" as="sourcePoint" />
            <mxPoint x="578" y="373" as="targetPoint" />
          </mxGeometry>
        </mxCell>
        <mxCell id="4pPsAx6psshG3Giz3JZS-3" value="&amp;lt;&amp;lt;include&amp;gt;&amp;gt;" style="endArrow=open;endSize=12;dashed=1;html=1;rounded=0;entryX=0;entryY=1;entryDx=0;entryDy=0;exitX=1;exitY=0;exitDx=0;exitDy=0;" parent="1" source="mcvAm5kL8X6so__n40Fy-3" target="VeX4TsKtwX9wiIYAwhO9-1" edge="1">
          <mxGeometry width="160" relative="1" as="geometry">
            <mxPoint x="470" y="405" as="sourcePoint" />
            <mxPoint x="550" y="405" as="targetPoint" />
          </mxGeometry>
        </mxCell>
      </root>
    </mxGraphModel>
  </diagram>
  <diagram id="EyRMf9p6xqE1DOqxEPzo" name="Kloola Management Order">
    <mxGraphModel dx="1050" dy="565" grid="1" gridSize="10" guides="1" tooltips="1" connect="1" arrows="1" fold="1" page="1" pageScale="1" pageWidth="850" pageHeight="1100" math="0" shadow="0">
      <root>
        <mxCell id="0" />
        <mxCell id="1" parent="0" />
        <mxCell id="_rpVOGfGAdFsJj6f5LH7-1" value="Kloola Management Order" style="shape=umlFrame;whiteSpace=wrap;html=1;pointerEvents=0;width=250;height=15;" parent="1" vertex="1">
          <mxGeometry x="220" y="170" width="470" height="470" as="geometry" />
        </mxCell>
        <mxCell id="KhchlHAwWJQJYj_8wApo-3" style="rounded=0;orthogonalLoop=1;jettySize=auto;html=1;exitX=0.5;exitY=0.5;exitDx=0;exitDy=0;exitPerimeter=0;" parent="1" source="u-qvivHcR3IElGnG1Mfc-1" target="yZWeyZ7ewA_eooS8gU9a-3" edge="1">
          <mxGeometry relative="1" as="geometry" />
        </mxCell>
        <mxCell id="KhchlHAwWJQJYj_8wApo-4" style="rounded=0;orthogonalLoop=1;jettySize=auto;html=1;exitX=0.5;exitY=0.5;exitDx=0;exitDy=0;exitPerimeter=0;entryX=0;entryY=0.5;entryDx=0;entryDy=0;" parent="1" source="u-qvivHcR3IElGnG1Mfc-1" target="yZWeyZ7ewA_eooS8gU9a-2" edge="1">
          <mxGeometry relative="1" as="geometry" />
        </mxCell>
        <mxCell id="KhchlHAwWJQJYj_8wApo-5" style="rounded=0;orthogonalLoop=1;jettySize=auto;html=1;exitX=0.5;exitY=0.5;exitDx=0;exitDy=0;exitPerimeter=0;entryX=0;entryY=0.5;entryDx=0;entryDy=0;" parent="1" source="u-qvivHcR3IElGnG1Mfc-1" target="yZWeyZ7ewA_eooS8gU9a-4" edge="1">
          <mxGeometry relative="1" as="geometry" />
        </mxCell>
        <mxCell id="u-qvivHcR3IElGnG1Mfc-1" value="Seller" style="shape=umlActor;verticalLabelPosition=bottom;verticalAlign=top;html=1;" parent="1" vertex="1">
          <mxGeometry x="150" y="370" width="30" height="60" as="geometry" />
        </mxCell>
        <mxCell id="yZWeyZ7ewA_eooS8gU9a-1" value="View order list" style="ellipse;whiteSpace=wrap;html=1;" parent="1" vertex="1">
          <mxGeometry x="370" y="220" width="140" height="70" as="geometry" />
        </mxCell>
        <mxCell id="yZWeyZ7ewA_eooS8gU9a-2" value="Create order" style="ellipse;whiteSpace=wrap;html=1;" parent="1" vertex="1">
          <mxGeometry x="300" y="440" width="140" height="70" as="geometry" />
        </mxCell>
        <mxCell id="yZWeyZ7ewA_eooS8gU9a-3" value="Update status order" style="ellipse;whiteSpace=wrap;html=1;" parent="1" vertex="1">
          <mxGeometry x="320" y="330" width="140" height="70" as="geometry" />
        </mxCell>
        <mxCell id="yZWeyZ7ewA_eooS8gU9a-4" value="request pickup" style="ellipse;whiteSpace=wrap;html=1;" parent="1" vertex="1">
          <mxGeometry x="370" y="550" width="140" height="70" as="geometry" />
        </mxCell>
        <mxCell id="yZWeyZ7ewA_eooS8gU9a-5" value="Shipdeo" style="shape=umlActor;verticalLabelPosition=bottom;verticalAlign=top;html=1;" parent="1" vertex="1">
          <mxGeometry x="750" y="370" width="30" height="60" as="geometry" />
        </mxCell>
        <mxCell id="8OJI-4BgWzgchJruS9gR-1" value="3rd party channel" style="shape=umlActor;verticalLabelPosition=bottom;verticalAlign=top;html=1;" parent="1" vertex="1">
          <mxGeometry x="750" y="490" width="30" height="60" as="geometry" />
        </mxCell>
        <mxCell id="KhchlHAwWJQJYj_8wApo-1" value="Authentication" style="ellipse;whiteSpace=wrap;html=1;" parent="1" vertex="1">
          <mxGeometry x="520" y="380" width="140" height="70" as="geometry" />
        </mxCell>
        <mxCell id="KhchlHAwWJQJYj_8wApo-2" style="rounded=0;orthogonalLoop=1;jettySize=auto;html=1;exitX=0.5;exitY=0.5;exitDx=0;exitDy=0;exitPerimeter=0;entryX=0.051;entryY=0.791;entryDx=0;entryDy=0;entryPerimeter=0;" parent="1" source="u-qvivHcR3IElGnG1Mfc-1" target="yZWeyZ7ewA_eooS8gU9a-1" edge="1">
          <mxGeometry relative="1" as="geometry" />
        </mxCell>
        <mxCell id="6PWyeiKjANYIwjIf19ga-1" value="&amp;lt;&amp;lt;include&amp;gt;&amp;gt;" style="endArrow=open;endSize=12;dashed=1;html=1;rounded=0;entryX=0.317;entryY=0.026;entryDx=0;entryDy=0;exitX=1;exitY=1;exitDx=0;exitDy=0;entryPerimeter=0;" parent="1" source="yZWeyZ7ewA_eooS8gU9a-1" target="KhchlHAwWJQJYj_8wApo-1" edge="1">
          <mxGeometry width="160" relative="1" as="geometry">
            <mxPoint x="470" y="265" as="sourcePoint" />
            <mxPoint x="568" y="363" as="targetPoint" />
          </mxGeometry>
        </mxCell>
        <mxCell id="6PWyeiKjANYIwjIf19ga-2" value="&amp;lt;&amp;lt;include&amp;gt;&amp;gt;" style="endArrow=open;endSize=12;dashed=1;html=1;rounded=0;entryX=0.037;entryY=0.3;entryDx=0;entryDy=0;exitX=1;exitY=0.5;exitDx=0;exitDy=0;entryPerimeter=0;" parent="1" source="yZWeyZ7ewA_eooS8gU9a-3" target="KhchlHAwWJQJYj_8wApo-1" edge="1">
          <mxGeometry width="160" relative="1" as="geometry">
            <mxPoint x="499" y="290" as="sourcePoint" />
            <mxPoint x="574" y="392" as="targetPoint" />
          </mxGeometry>
        </mxCell>
        <mxCell id="6PWyeiKjANYIwjIf19ga-3" value="&amp;lt;&amp;lt;include&amp;gt;&amp;gt;" style="endArrow=open;endSize=12;dashed=1;html=1;rounded=0;entryX=0.031;entryY=0.746;entryDx=0;entryDy=0;exitX=0.986;exitY=0.369;exitDx=0;exitDy=0;entryPerimeter=0;exitPerimeter=0;" parent="1" source="yZWeyZ7ewA_eooS8gU9a-2" target="KhchlHAwWJQJYj_8wApo-1" edge="1">
          <mxGeometry width="160" relative="1" as="geometry">
            <mxPoint x="470" y="375" as="sourcePoint" />
            <mxPoint x="535" y="411" as="targetPoint" />
          </mxGeometry>
        </mxCell>
        <mxCell id="6PWyeiKjANYIwjIf19ga-4" value="&amp;lt;&amp;lt;include&amp;gt;&amp;gt;" style="endArrow=open;endSize=12;dashed=1;html=1;rounded=0;exitX=0.714;exitY=0.043;exitDx=0;exitDy=0;exitPerimeter=0;" parent="1" source="yZWeyZ7ewA_eooS8gU9a-4" target="KhchlHAwWJQJYj_8wApo-1" edge="1">
          <mxGeometry width="160" relative="1" as="geometry">
            <mxPoint x="448" y="476" as="sourcePoint" />
            <mxPoint x="534" y="442" as="targetPoint" />
          </mxGeometry>
        </mxCell>
        <mxCell id="6PWyeiKjANYIwjIf19ga-5" style="rounded=0;orthogonalLoop=1;jettySize=auto;html=1;exitX=0.5;exitY=0.5;exitDx=0;exitDy=0;exitPerimeter=0;entryX=0.989;entryY=0.397;entryDx=0;entryDy=0;entryPerimeter=0;" parent="1" source="yZWeyZ7ewA_eooS8gU9a-5" target="yZWeyZ7ewA_eooS8gU9a-4" edge="1">
          <mxGeometry relative="1" as="geometry" />
        </mxCell>
        <mxCell id="6PWyeiKjANYIwjIf19ga-6" style="rounded=0;orthogonalLoop=1;jettySize=auto;html=1;exitX=0.5;exitY=0.5;exitDx=0;exitDy=0;exitPerimeter=0;entryX=0.931;entryY=0.751;entryDx=0;entryDy=0;entryPerimeter=0;" parent="1" source="8OJI-4BgWzgchJruS9gR-1" target="yZWeyZ7ewA_eooS8gU9a-4" edge="1">
          <mxGeometry relative="1" as="geometry" />
        </mxCell>
      </root>
    </mxGraphModel>
  </diagram>
  <diagram id="jhpB3JzK1Dau2SQPSY9m" name="Auth Kloola">
    <mxGraphModel dx="1050" dy="565" grid="1" gridSize="10" guides="1" tooltips="1" connect="1" arrows="1" fold="1" page="1" pageScale="1" pageWidth="850" pageHeight="1100" math="0" shadow="0">
      <root>
        <mxCell id="0" />
        <mxCell id="1" parent="0" />
        <mxCell id="BYDb93VBOe6zkZOMyK7k-1" value="Kloola Auth" style="shape=umlFrame;whiteSpace=wrap;html=1;pointerEvents=0;width=250;height=15;" parent="1" vertex="1">
          <mxGeometry x="220" y="170" width="470" height="470" as="geometry" />
        </mxCell>
        <mxCell id="hG8AEP7c3mHq1HzMHDIN-3" style="rounded=0;orthogonalLoop=1;jettySize=auto;html=1;exitX=0.5;exitY=0.5;exitDx=0;exitDy=0;exitPerimeter=0;entryX=0;entryY=0.5;entryDx=0;entryDy=0;" parent="1" source="RoDi5LWIlhzvBWLyD8-z-1" target="B04OzVdVwlM-ECRwSSQW-1" edge="1">
          <mxGeometry relative="1" as="geometry" />
        </mxCell>
        <mxCell id="RoDi5LWIlhzvBWLyD8-z-1" value="Seller" style="shape=umlActor;verticalLabelPosition=bottom;verticalAlign=top;html=1;" parent="1" vertex="1">
          <mxGeometry x="150" y="370" width="30" height="60" as="geometry" />
        </mxCell>
        <mxCell id="B04OzVdVwlM-ECRwSSQW-1" value="Authentication" style="ellipse;whiteSpace=wrap;html=1;" parent="1" vertex="1">
          <mxGeometry x="330" y="365" width="140" height="70" as="geometry" />
        </mxCell>
        <mxCell id="hG8AEP7c3mHq1HzMHDIN-1" value="Input Username&lt;span style=&quot;color: rgba(0, 0, 0, 0); font-family: monospace; font-size: 0px; text-align: start; text-wrap: nowrap;&quot;&gt;%3CmxGraphModel%3E%3Croot%3E%3CmxCell%20id%3D%220%22%2F%3E%3CmxCell%20id%3D%221%22%20parent%3D%220%22%2F%3E%3CmxCell%20id%3D%222%22%20value%3D%22View%20order%20list%22%20style%3D%22ellipse%3BwhiteSpace%3Dwrap%3Bhtml%3D1%3B%22%20vertex%3D%221%22%20parent%3D%221%22%3E%3CmxGeometry%20x%3D%22370%22%20y%3D%22220%22%20width%3D%22140%22%20height%3D%2270%22%20as%3D%22geometry%22%2F%3E%3C%2FmxCell%3E%3C%2Froot%3E%3C%2FmxGraphModel%3E&lt;/span&gt;" style="ellipse;whiteSpace=wrap;html=1;" parent="1" vertex="1">
          <mxGeometry x="490" y="280" width="140" height="70" as="geometry" />
        </mxCell>
        <mxCell id="hG8AEP7c3mHq1HzMHDIN-2" value="Input Password&lt;span style=&quot;color: rgba(0, 0, 0, 0); font-family: monospace; font-size: 0px; text-align: start; text-wrap: nowrap;&quot;&gt;%3CmxGraphModel%3E%3Croot%3E%3CmxCell%20id%3D%220%22%2F%3E%3CmxCell%20id%3D%221%22%20parent%3D%220%22%2F%3E%3CmxCell%20id%3D%222%22%20value%3D%22View%20order%20list%22%20style%3D%22ellipse%3BwhiteSpace%3Dwrap%3Bhtml%3D1%3B%22%20vertex%3D%221%22%20parent%3D%221%22%3E%3CmxGeometry%20x%3D%22370%22%20y%3D%22220%22%20width%3D%22140%22%20height%3D%2270%22%20as%3D%22geometry%22%2F%3E%3C%2FmxCell%3E%3C%2Froot%3E%3C%2FmxGraphModel%3&lt;/span&gt;" style="ellipse;whiteSpace=wrap;html=1;" parent="1" vertex="1">
          <mxGeometry x="500" y="450" width="140" height="70" as="geometry" />
        </mxCell>
        <mxCell id="3dz9kO1hVlwj16q6a32z-1" value="&amp;lt;&amp;lt;include&amp;gt;&amp;gt;" style="endArrow=open;endSize=12;dashed=1;html=1;rounded=0;exitX=1;exitY=0;exitDx=0;exitDy=0;" parent="1" source="B04OzVdVwlM-ECRwSSQW-1" target="hG8AEP7c3mHq1HzMHDIN-1" edge="1">
          <mxGeometry width="160" relative="1" as="geometry">
            <mxPoint x="470" y="375" as="sourcePoint" />
            <mxPoint x="535" y="411" as="targetPoint" />
          </mxGeometry>
        </mxCell>
        <mxCell id="3dz9kO1hVlwj16q6a32z-2" value="&amp;lt;&amp;lt;include&amp;gt;&amp;gt;" style="endArrow=open;endSize=12;dashed=1;html=1;rounded=0;exitX=1;exitY=1;exitDx=0;exitDy=0;" parent="1" source="B04OzVdVwlM-ECRwSSQW-1" target="hG8AEP7c3mHq1HzMHDIN-2" edge="1">
          <mxGeometry width="160" relative="1" as="geometry">
            <mxPoint x="459" y="385" as="sourcePoint" />
            <mxPoint x="523" y="351" as="targetPoint" />
          </mxGeometry>
        </mxCell>
      </root>
    </mxGraphModel>
  </diagram>
</mxfile>
